<svg id="visual" viewBox="0 0 900 600" width="900" height="600" xmlns="http://www.w3.org/2000/svg" xmlns:xlink="http://www.w3.org/1999/xlink" version="1.1"><rect x="0" y="0" width="900" height="600" fill="#001220"></rect><defs><linearGradient id="grad1_0" x1="33.3%" y1="0%" x2="100%" y2="100%"><stop offset="20%" stop-color="#795c5f" stop-opacity="1"></stop><stop offset="80%" stop-color="#795c5f" stop-opacity="1"></stop></linearGradient></defs><defs><linearGradient id="grad1_1" x1="33.3%" y1="0%" x2="100%" y2="100%"><stop offset="20%" stop-color="#795c5f" stop-opacity="1"></stop><stop offset="80%" stop-color="#001220" stop-opacity="1"></stop></linearGradient></defs><defs><linearGradient id="grad2_0" x1="0%" y1="0%" x2="66.7%" y2="100%"><stop offset="20%" stop-color="#795c5f" stop-opacity="1"></stop><stop offset="80%" stop-color="#795c5f" stop-opacity="1"></stop></linearGradient></defs><defs><linearGradient id="grad2_1" x1="0%" y1="0%" x2="66.7%" y2="100%"><stop offset="20%" stop-color="#001220" stop-opacity="1"></stop><stop offset="80%" stop-color="#795c5f" stop-opacity="1"></stop></linearGradient></defs><g transform="translate(900, 0)"><path d="M0 432.7C-34.5 437.4 -69 442.1 -96.3 421.8C-123.6 401.5 -143.8 356.3 -151 313.5C-158.2 270.8 -152.5 230.5 -179.6 225.2C-206.7 219.8 -266.6 249.4 -313.5 250C-360.4 250.6 -394.3 222.3 -388.3 187C-382.4 151.7 -336.6 109.3 -337.3 77C-338.1 44.7 -385.4 22.3 -432.7 0L0 0Z" fill="#403444"></path><path d="M0 216.3C-17.2 218.7 -34.5 221 -48.1 210.9C-61.8 200.8 -71.9 178.1 -75.5 156.8C-79.1 135.4 -76.2 115.3 -89.8 112.6C-103.3 109.9 -133.3 124.7 -156.8 125C-180.2 125.3 -197.1 111.2 -194.2 93.5C-191.2 75.8 -168.3 54.7 -168.7 38.5C-169 22.3 -192.7 11.2 -216.3 0L0 0Z" fill="#795c5f"></path></g><g transform="translate(0, 600)"><path d="M0 -432.7C27.1 -413.2 54.2 -393.8 90.1 -394.8C126.1 -395.9 170.9 -417.5 187.7 -389.8C204.5 -362.1 193.2 -285.2 198.3 -248.6C203.3 -212.1 224.8 -215.9 270.5 -215.7C316.3 -215.6 386.3 -211.5 378.4 -182.2C370.5 -153 284.7 -98.6 280.8 -64.1C276.8 -29.5 354.8 -14.8 432.7 0L0 0Z" fill="#403444"></path><path d="M0 -216.3C13.5 -206.6 27.1 -196.9 45.1 -197.4C63 -198 85.5 -208.8 93.9 -194.9C102.3 -181.1 96.6 -142.6 99.1 -124.3C101.7 -106 112.4 -107.9 135.3 -107.9C158.1 -107.8 193.1 -105.7 189.2 -91.1C185.3 -76.5 142.4 -49.3 140.4 -32C138.4 -14.8 177.4 -7.4 216.3 0L0 0Z" fill="#795c5f"></path></g></svg>