<svg id="visual" viewBox="0 0 900 600" width="900" height="600" xmlns="http://www.w3.org/2000/svg" xmlns:xlink="http://www.w3.org/1999/xlink" version="1.1"><rect x="0" y="0" width="900" height="600" fill="#00111e"></rect><defs><linearGradient id="grad1_0" x1="33.3%" y1="100%" x2="100%" y2="0%"><stop offset="20%" stop-color="#00111e" stop-opacity="1"></stop><stop offset="80%" stop-color="#00111e" stop-opacity="1"></stop></linearGradient></defs><defs><linearGradient id="grad2_0" x1="0%" y1="100%" x2="66.7%" y2="0%"><stop offset="20%" stop-color="#00111e" stop-opacity="1"></stop><stop offset="80%" stop-color="#00111e" stop-opacity="1"></stop></linearGradient></defs><g transform="translate(900, 600)"><path d="M-486.7 0C-450.6 -35.8 -414.4 -71.5 -390.2 -104.6C-366 -137.6 -353.8 -167.9 -339.5 -196C-325.2 -224.1 -308.8 -250 -297 -297C-285.1 -344 -277.8 -412.2 -243.4 -421.5C-209 -430.9 -147.6 -381.4 -102.5 -382.5C-57.4 -383.6 -28.7 -435.2 0 -486.7L0 0Z" fill="#570418"></path></g><g transform="translate(0, 0)"><path d="M486.7 0C482.1 42.5 477.4 85 460.7 123.5C444 161.9 415.3 196.4 385.4 222.5C355.5 248.6 324.4 266.3 304.1 304.1C283.7 341.9 274.2 399.8 243.4 421.5C212.5 443.3 160.3 428.9 116.2 433.7C72.1 438.5 36 462.6 0 486.7L0 0Z" fill="#570418"></path></g></svg>